<svg xmlns="http://www.w3.org/2000/svg">
  <style>:root svg:not(:target){display:none}</style>

  <svg id="edit" fill="none"  stroke="currentColor" stroke-linecap="round" stroke-linejoin="round" stroke-width="2" viewBox="0 0 24 24">
    <path d="M11 4H4a2 2 0 0 0-2 2v14a2 2 0 0 0 2 2h14a2 2 0 0 0 2-2v-7"/><path d="M18.5 2.5a2.121 2.121 0 0 1 3 3L12 15l-4 1 1-4 9.5-9.5z"/>
  </svg>

  <svg id="cross" fill="currentColor" viewBox="0 0 24 24" >
    <path  d="M5.3,18.7C5.5,18.9,5.7,19,6,19s0.5-0.1,0.7-0.3l5.3-5.3l5.3,5.3c0.2,0.2,0.5,0.3,0.7,0.3s0.5-0.1,0.7-0.3   c0.4-0.4,0.4-1,0-1.4L13.4,12l5.3-5.3c0.4-0.4,0.4-1,0-1.4s-1-0.4-1.4,0L12,10.6L6.7,5.3c-0.4-0.4-1-0.4-1.4,0s-0.4,1,0,1.4   l5.3,5.3l-5.3,5.3C4.9,17.7,4.9,18.3,5.3,18.7z"/>
  </svg>

</svg>
